<svg id="Layer_7" data-name="Layer 7" xmlns="http://www.w3.org/2000/svg" viewBox="0 0 62.21 217.84"><defs><style>.cls-1{fill:none;stroke:#fff;stroke-linecap:round;stroke-linejoin:round;stroke-width:3px;}</style></defs><path class="cls-1" d="M39.5,64.5c-1.12,1.35-10,9-6,12,.28.21.81,1,3,1,3,0,7.75-1.92,12-5,7.53-5.45,10-8,14-13,1.45-1.81,3.79-6.73,2-9-1.32-1.68-4.45-1.22-6-1-1,.14-12.62,2-15,12-1.42,6,1,13,6,16,3.58,2.15,8.06,1.19,9,1a33.17,33.17,0,0,0,5-2c3.22-1.61,6-4,10-12,1.49-3,5-14,3-26-.65-3.91-1.23-9-5-11-3.15-1.67-6.88-.39-8,0-4.43,1.53-6.75,5-8,7-5.3,8.29-3.11,17.55-3,18,2.09,8.28,9.37,16.75,18,17,.35,0,6.08.13,9-5,0,0,3-4,1-12-1.57-6.29-8.34-20.82-24-24-9-1.82-20.64.27-28,9-8.95,10.61-5.7,24.1-5,27a35.79,35.79,0,0,0,10,17c11.15,10.6,27.75,12.31,37,8,2.24-1,7.48-3.49,10-9a11.22,11.22,0,0,0,1-3c.09-.87.27-2.76-1-4a4.12,4.12,0,0,0-3-1,5.85,5.85,0,0,0-4,2,8.65,8.65,0,0,0-2,4,26.2,26.2,0,0,0-1,7c0,4,0,8.26,0,13" transform="translate(-20.85 -25.16)"/><line class="cls-1" x1="49.65" y1="70.19" x2="49.65" y2="216.34"/></svg>